HIERARCHY
ROOT Hips
{
	OFFSET 0.000000 0.000000 0.000000 
	CHANNELS 6 Xposition Yposition Zposition Zrotation Yrotation Xrotation
	JOINT LeftUpLeg
	{
		OFFSET 1.363060 -1.794630 0.839290 
		CHANNELS 3 Zrotation Yrotation Xrotation
		JOINT LeftLeg
		{
			OFFSET 2.448110 -6.726130 0.000000 
			CHANNELS 3 Zrotation Yrotation Xrotation
			JOINT LeftFoot
			{
				OFFSET 2.562200 -7.039590 0.000000 
				CHANNELS 3 Zrotation Yrotation Xrotation
				JOINT LeftToeBase
				{
					OFFSET 0.157640 -0.433110 2.322550 
					CHANNELS 3 Zrotation Yrotation Xrotation
					End Site
					{
						OFFSET 0.000000 0.000000 0.000000 
					}
				}
			}
		}
	}
	JOINT RightUpLeg
	{
		OFFSET -1.305520 -1.794630 0.839290 
		CHANNELS 3 Zrotation Yrotation Xrotation
		JOINT RightLeg
		{
			OFFSET -2.542530 -6.985550 0.000000 
			CHANNELS 3 Zrotation Yrotation Xrotation
			JOINT RightFoot
			{
				OFFSET -2.568260 -7.056230 0.000000 
				CHANNELS 3 Zrotation Yrotation Xrotation
				JOINT RightToeBase
				{
					OFFSET -0.164730 -0.452590 2.363150 
					CHANNELS 3 Zrotation Yrotation Xrotation
					End Site
					{
						OFFSET 0.000000 0.000000 0.000000 
					}
				}
			}
		}
	}
	JOINT Spine
	{
		OFFSET 0.028270 2.035590 -0.193380 
		CHANNELS 3 Zrotation Yrotation Xrotation
		JOINT Spine1
		{
			OFFSET 0.056720 2.048850 -0.042750 
			CHANNELS 3 Zrotation Yrotation Xrotation
			JOINT Neck1
			{
				OFFSET -0.054170 1.746240 0.172020 
				CHANNELS 3 Zrotation Yrotation Xrotation
				JOINT Head
				{
					OFFSET 0.104070 1.761360 -0.123970 
					CHANNELS 3 Zrotation Yrotation Xrotation
					End Site
					{
						OFFSET 0.000000 0.000000 0.000000 
					}
				}
			}
			JOINT LeftArm
			{
				OFFSET 3.362410 1.200890 -0.311210 
				CHANNELS 3 Zrotation Yrotation Xrotation
				JOINT LeftForeArm
				{
					OFFSET 4.983000 -0.000000 -0.000000 
					CHANNELS 3 Zrotation Yrotation Xrotation
					JOINT LeftHand
					{
						OFFSET 3.483560 -0.000000 -0.000000 
						CHANNELS 3 Zrotation Yrotation Xrotation
						JOINT LeftHandIndex1
						{
							OFFSET 0.715260 -0.000000 -0.000000 
							CHANNELS 3 Zrotation Yrotation Xrotation
							End Site
							{
								OFFSET 0.000000 0.000000 0.000000 
							}
						}
					}
				}
			}
			JOINT RightArm
			{
				OFFSET -3.136600 1.374050 -0.404650 
				CHANNELS 3 Zrotation Yrotation Xrotation
				JOINT RightForeArm
				{
					OFFSET -5.241900 -0.000000 -0.000000 
					CHANNELS 3 Zrotation Yrotation Xrotation
					JOINT RightHand
					{
						OFFSET -3.444170 -0.000000 -0.000000 
						CHANNELS 3 Zrotation Yrotation Xrotation
						JOINT RightHandIndex1
						{
							OFFSET -0.622530 -0.000000 -0.000000 
							CHANNELS 3 Zrotation Yrotation Xrotation
							End Site
							{
								OFFSET 0.000000 0.000000 0.000000 
							}
						}
					}
				}
			}
		}
	}
}
MOTION
Frames: 7
Frame Time: 0.041667
6.677630 19.755102 -12.250100 -179.727012 2.248173 -174.083082 -12.178936 22.523842 -36.931019 2.046886 10.655932 24.133270 -8.017262 25.559647 26.283069 0.300000 3.521600 9.734400 6.075874 -6.747714 -27.551708 -7.590953 -16.876322 48.482045 3.395748 -12.120912 12.906511 -0.012700 0.727600 -1.999500 1.300695 2.057218 -5.428272 -7.081212 0.680564 -14.448923 12.507361 -15.194188 -9.978211 3.767800 -8.216600 0.428200 -3.222518 -7.671202 48.386451 120.280110 -58.503522 -96.319540 -2.491895 -1.159247 -10.618662 -7.125000 0.000000 0.000000 -34.984565 5.841199 -48.587921 -30.429106 33.183659 -26.836367 0.680836 7.679736 -61.964165 7.125000 0.000000 0.000000 
6.700703 19.843744 -12.167585 -179.894266 1.904219 -173.422885 -11.845878 22.003757 -36.726038 1.627410 10.298549 22.947511 -7.825691 25.351155 26.537356 0.242000 3.165800 8.740800 5.749471 -6.198970 -26.932888 -6.637505 -16.168666 45.354554 4.097185 -13.649787 13.532593 -0.007200 0.547100 -1.503400 1.382230 2.010199 -5.453084 -7.331469 0.654269 -14.594215 13.020913 -15.329072 -10.448680 3.969200 -8.323200 0.381300 -3.081867 -7.028454 48.580492 120.679718 -58.429448 -96.663957 -2.362655 -1.156945 -10.589459 -7.125000 0.000000 0.000000 -34.603007 4.664361 -50.578978 -27.770059 31.323314 -24.759774 0.380569 7.809503 -64.685310 7.125000 0.000000 0.000000 
6.721430 19.925217 -12.083635 179.929052 1.567242 -172.746433 -11.519370 21.443675 -36.540548 1.201418 9.949268 21.884734 -7.471219 24.780746 26.693398 0.165600 2.621300 7.226200 5.327909 -5.613011 -26.326179 -5.673328 -15.368187 42.080309 4.810583 -15.204994 14.230738 -0.001200 0.225800 -0.620400 1.471240 1.969075 -5.473574 -7.601832 0.630921 -14.729200 13.537637 -15.462251 -10.905552 4.171200 -8.430100 0.334400 -2.911082 -6.380711 48.785429 121.069592 -58.365666 -97.006081 -2.222884 -1.159711 -10.626799 -7.125000 0.000000 0.000000 -34.131942 3.532901 -52.426231 -25.221671 29.431552 -22.749305 0.098658 7.902675 -67.075680 7.125000 0.000000 0.000000 
6.739810 19.998347 -11.998382 179.744602 1.240523 -172.062815 -11.198139 20.841120 -36.379708 0.782199 9.619479 20.961142 -6.946622 23.873033 26.802636 0.082900 1.857100 5.110900 4.817200 -4.985544 -25.740606 -4.746152 -14.493232 38.718642 5.669080 -17.001918 14.967029 -0.000100 0.063700 -0.175100 1.567210 1.930477 -5.489457 -7.891844 0.609093 -14.848487 14.050646 -15.588624 -11.336034 4.364200 -8.534800 0.294800 -2.701664 -5.733332 48.990001 121.444800 -58.315934 -97.343949 -2.071467 -1.167358 -10.723226 -7.125000 0.000000 0.000000 -33.590849 2.464325 -54.147719 -22.798215 27.523744 -20.804463 -0.165788 7.964222 -69.125130 7.125000 0.000000 0.000000 
6.755974 20.060396 -11.911565 179.568403 0.927394 -171.367346 -10.895480 20.205143 -36.260412 0.373180 9.315344 20.202902 -6.221207 22.577867 26.853790 0.026400 1.048500 2.882200 4.240215 -4.333382 -25.192842 -3.907905 -13.583066 35.373690 6.670401 -19.053032 15.858959 -0.000600 0.160100 -0.439900 1.662456 1.749609 -5.517643 -8.171696 0.056430 -14.904766 14.769468 -15.685974 -11.790977 4.192800 -8.622100 0.300300 -2.445613 -5.083475 49.194258 121.770666 -58.307130 -97.659067 -1.908210 -1.179646 -10.829728 -7.125000 0.000000 0.000000 -32.992924 1.475543 -55.746549 -20.524658 25.624671 -18.938066 -0.412992 8.000638 -70.859776 7.125000 0.000000 0.000000 
6.770574 20.110062 -11.822662 179.383691 0.633427 -170.681825 -10.626549 19.558576 -36.202615 -0.008737 9.052230 19.609762 -5.358556 21.025163 26.839534 0.000700 0.173100 0.475700 3.621314 -3.619374 -24.677375 -3.170326 -12.682180 32.234507 7.597710 -20.957395 16.756859 -0.001600 0.261500 -0.718500 1.767993 1.710667 -5.527232 -8.486230 0.016230 -14.994670 15.287971 -15.794224 -12.158306 4.340600 -8.719500 0.283900 -2.147526 -4.460903 49.377690 122.025307 -58.339302 -97.938459 -1.737381 -1.196072 -10.909015 -7.125000 0.000000 0.000000 -32.354353 0.570728 -57.225314 -18.419982 23.760442 -17.168192 -0.647363 8.016202 -72.314970 7.125000 0.000000 0.000000 
6.784131 20.147865 -11.731022 179.209819 0.348397 -170.006134 -10.393407 18.918420 -36.206034 -0.344281 8.838840 19.165811 -4.482393 19.431208 26.720885 0.014900 -0.787500 -2.164300 3.005827 -2.857589 -24.213683 -2.548777 -11.843415 29.436940 8.384111 -22.594837 17.625330 -0.003300 0.372300 -1.023000 1.876556 1.669166 -5.533430 -8.796134 -0.024485 -15.072562 15.794826 -15.890122 -12.480048 4.473900 -8.810900 0.277100 -1.806520 -3.863049 49.532405 122.187705 -58.431629 -98.171637 -1.558930 -1.217174 -10.941598 -7.125000 0.000000 0.000000 -31.689763 -0.237033 -58.597973 -16.500818 21.961975 -15.507765 -0.869754 8.011921 -73.507480 7.125000 0.000000 0.000000 
